<svg width="71" height="70" viewBox="0 0 71 70" fill="none" xmlns="http://www.w3.org/2000/svg">
<path d="M24.157 46.3428C23.8836 46.0693 23.73 45.6984 23.73 45.3117C23.73 44.925 23.8836 44.5542 24.157 44.2807L33.4378 34.9998L24.157 25.719C23.8913 25.444 23.7443 25.0756 23.7476 24.6932C23.751 24.3108 23.9043 23.9451 24.1747 23.6747C24.4451 23.4043 24.8109 23.2509 25.1932 23.2476C25.5756 23.2443 25.944 23.3913 26.219 23.6569L35.4999 32.9378L44.7807 23.6569C45.0558 23.3913 45.4241 23.2443 45.8065 23.2476C46.1889 23.2509 46.5546 23.4043 46.825 23.6747C47.0954 23.9451 47.2488 24.3108 47.2521 24.6932C47.2554 25.0756 47.1084 25.444 46.8428 25.719L37.562 34.9998L46.8428 44.2807C47.1084 44.5557 47.2554 44.9241 47.2521 45.3065C47.2488 45.6888 47.0954 46.0546 46.825 46.325C46.5546 46.5954 46.1889 46.7488 45.8065 46.7521C45.4241 46.7554 45.0558 46.6084 44.7807 46.3428L35.4999 37.0619L26.219 46.3428C25.9456 46.6162 25.5747 46.7697 25.188 46.7697C24.8013 46.7697 24.4304 46.6162 24.157 46.3428Z" fill="#B8BACC"/>
<path fill-rule="evenodd" clip-rule="evenodd" d="M35.4999 64.1666C51.6087 64.1666 64.6666 51.1087 64.6666 34.9999C64.6666 18.8912 51.6087 5.83325 35.4999 5.83325C19.3912 5.83325 6.33325 18.8912 6.33325 34.9999C6.33325 51.1087 19.3912 64.1666 35.4999 64.1666ZM35.4999 61.2499C49.9972 61.2499 61.7499 49.4972 61.7499 34.9999C61.7499 20.5026 49.9972 8.74992 35.4999 8.74992C21.0026 8.74992 9.24992 20.5026 9.24992 34.9999C9.24992 49.4972 21.0026 61.2499 35.4999 61.2499Z" fill="#B8BACC"/>
</svg>
